<?xml version="1.0" encoding="UTF-8" standalone="no"?>
<!DOCTYPE svg PUBLIC "-//W3C//DTD SVG 1.1//EN" "http://www.w3.org/Graphics/SVG/1.1/DTD/svg11.dtd">
<svg width="100%" height="100%" viewBox="0 0 1500 1500" version="1.1" xmlns="http://www.w3.org/2000/svg" xmlns:xlink="http://www.w3.org/1999/xlink" xml:space="preserve" xmlns:serif="http://www.serif.com/" style="fill-rule:evenodd;clip-rule:evenodd;stroke-linejoin:round;stroke-miterlimit:2;">
    <g transform="matrix(0.366333,0,0,0.366333,750,661.5)">
        <g id="converted-11.svg" serif:id="converted 11.svg" transform="matrix(1,0,0,1,-1500,-1500)">
            <g transform="matrix(0.1,0,0,-0.1,0,3000)">
                <path d="M14307,23552C14283,23525 14286,23473 14315,23424L14340,23382L14305,23361C14286,23350 14251,23316 14228,23286L14185,23230L14176,23288C14172,23319 14167,23378 14166,23419C14165,23502 14160,23508 14105,23490C14073,23479 14069,23475 14072,23447C14074,23426 14082,23412 14096,23406C14114,23398 14118,23385 14124,23316C14127,23271 14130,23224 14130,23210C14130,23183 14129,23183 13959,23085L13904,23053L13854,23081C13709,23165 13566,23126 13488,22983C13435,22886 13408,22769 13403,22609C13394,22362 13425,22218 13534,22000C13614,21840 13730,21666 13970,21345C14198,21040 14265,20939 14305,20842C14335,20768 14396,20534 14408,20444C14420,20358 14411,20129 14371,19535C14328,18904 14260,17721 14260,17619C14260,17567 14251,17575 14220,17655C14152,17832 14045,18021 13814,18371C13715,18522 13378,18937 13191,19140C13042,19301 12589,19752 12380,19947C11937,20362 11706,20588 11590,20721C11517,20804 11447,20876 11433,20883C11397,20899 11358,20875 11349,20831C11341,20792 11353,20591 11375,20385C11425,19934 11496,19722 11735,19315C11874,19078 11939,18987 12146,18740C12268,18594 12569,18290 12690,18190C12772,18123 13020,17936 13215,17795C13298,17736 13410,17650 13465,17605C13598,17496 13893,17194 13959,17100C14052,16967 14118,16820 14165,16637L14193,16529L14176,16302C14167,16177 14143,15906 14124,15700C14105,15494 14087,15295 14083,15258C14080,15220 14074,15190 14070,15190C14066,15190 14058,15208 14051,15231C14031,15296 13896,15558 13835,15650C13679,15883 13244,16332 12888,16628C12630,16843 12332,17042 11935,17265C11706,17394 11470,17542 11220,17714C10853,17965 10705,18091 10375,18427C10199,18606 10171,18630 10144,18630C10086,18630 10075,18604 10076,18471C10080,18139 10230,17618 10421,17275C10579,16989 10737,16782 10985,16535C11181,16338 11305,16236 11514,16098C11852,15875 12106,15772 12740,15600C13403,15420 13508,15373 13781,15128C13879,15040 13947,14955 13996,14858L14029,14792L13979,14388C13910,13828 13847,13258 13810,12845C13792,12653 13776,12488 13773,12480C13771,12472 13737,12526 13699,12600C13660,12674 13610,12759 13587,12789C13495,12912 13325,13113 13208,13236C13095,13357 13047,13403 12832,13603C12726,13702 12476,13899 12357,13978C12139,14124 11964,14219 11460,14465C11110,14635 10928,14730 10720,14848C10657,14884 10535,14952 10450,15000C10264,15104 9846,15361 9737,15437C9695,15467 9581,15556 9484,15636C9306,15782 9274,15800 9242,15768C9221,15747 9229,15655 9271,15453C9338,15130 9392,14970 9530,14685C9651,14437 9789,14239 10007,14004C10281,13710 10534,13511 10830,13356C11151,13189 11373,13124 12135,12971C12608,12876 12772,12835 13010,12749C13223,12673 13297,12633 13485,12491C13621,12389 13661,12350 13710,12276C13750,12214 13751,12210 13745,12149C13718,11846 13662,10989 13635,10470C13623,10233 13590,9512 13590,9476C13590,9472 13552,9544 13505,9636C13401,9845 13356,9914 13201,10110C13025,10331 12741,10607 12480,10811C12273,10973 11949,11176 11653,11331C11092,11625 10435,12025 10080,12288C9646,12610 9441,12793 9157,13113C9080,13201 9005,13276 8992,13281C8960,13293 8923,13270 8914,13234C8903,13189 8918,12971 8940,12850C8990,12579 9025,12471 9190,12080C9359,11679 9538,11374 9764,11100C9928,10901 10031,10799 10235,10635C10436,10473 10807,10260 11070,10157C11225,10096 11446,10028 11805,9930C12461,9752 12825,9633 13043,9524C13248,9422 13421,9276 13525,9120L13573,9047L13569,8841C13554,8112 13570,6881 13600,6420C13605,6346 13608,6284 13606,6283C13605,6282 13589,6317 13571,6363C13531,6461 13484,6544 13377,6705C13309,6806 13262,6859 13081,7041C12787,7334 12560,7512 12182,7744C11868,7937 11724,8012 11195,8260C10624,8528 9991,8852 9635,9057C9340,9228 9121,9398 8834,9682C8641,9873 8609,9900 8582,9900C8524,9900 8503,9836 8520,9708C8543,9532 8611,9332 8736,9073C8832,8872 9017,8607 9211,8390C9633,7917 10172,7519 10845,7183C11163,7024 11384,6939 12080,6707C12516,6562 12933,6407 13109,6324C13361,6205 13555,6024 13605,5859C13614,5829 13630,5780 13641,5750C13652,5718 13675,5581 13695,5427C13733,5131 13787,4773 13826,4550C13852,4399 13957,3834 13967,3790L13973,3765L13943,3793C13926,3808 13857,3903 13789,4002C13504,4418 13376,4566 13035,4865C12734,5130 12228,5455 11727,5707C11094,6024 10676,6180 9810,6420C9473,6514 9203,6600 8913,6706C8571,6831 8384,6916 8012,7112C7835,7205 7780,7207 7780,7118C7780,7024 7987,6680 8187,6443C8278,6335 8712,5912 8915,5735C9073,5597 9413,5327 9524,5251C9729,5111 10086,4917 10282,4839C10452,4771 10845,4644 11005,4605C11237,4549 11876,4427 12165,4385C12259,4371 12360,4355 12390,4349C12486,4331 12872,4232 12993,4195C13271,4111 13558,3950 13853,3712C13919,3659 13980,3610 13988,3604C13997,3598 14019,3507 14045,3373C14069,3252 14112,3058 14140,2942C14168,2827 14201,2670 14215,2594C14237,2469 14359,2011 14381,1968C14392,1947 14440,1944 14458,1962C14477,1981 14473,2006 14406,2314C14285,2858 14237,3138 14214,3430C14210,3477 14201,3529 14194,3547C14170,3603 14173,3607 14273,3639C14474,3703 14784,3767 15075,3805C15481,3857 15857,3925 16145,3996C17214,4263 18215,4665 19042,5161C19602,5496 19907,5753 20242,6171C20430,6405 20586,6674 20597,6783C20602,6834 20601,6839 20577,6855C20562,6865 20543,6869 20531,6865C20520,6862 20453,6818 20383,6768C20071,6546 19945,6471 19588,6295C19144,6074 18792,5951 17635,5610C16812,5368 16411,5232 15991,5054C15523,4856 14985,4553 14564,4249C14384,4120 14350,4092 14224,3967L14112,3858L14076,4006C14013,4270 13909,4875 13841,5385C13798,5705 13787,5808 13793,5823C13810,5868 14159,6008 14498,6105C14688,6160 14884,6204 15452,6320C15983,6428 16144,6467 16429,6555C16998,6731 17539,6966 17953,7217C18438,7510 19179,8143 19689,8699C19990,9026 20010,9050 20198,9288C20387,9525 20480,9668 20530,9792C20572,9900 20568,9940 20514,9940C20492,9940 20382,9847 20185,9661C20049,9533 19916,9430 19695,9285C19289,9017 18971,8839 18610,8675C18125,8454 17906,8366 17185,8096C15990,7649 15780,7565 15425,7390C14879,7121 14419,6795 14054,6419C13960,6321 13810,6133 13787,6083C13763,6030 13762,6039 13735,6445C13727,6572 13716,6783 13710,6915C13695,7243 13686,8536 13697,8690C13706,8808 13709,8822 13759,8940C13818,9083 13840,9108 13965,9180C14145,9282 14644,9417 15300,9540C15886,9650 16183,9722 16560,9849C16825,9938 16937,9983 17148,10085C18095,10544 18772,11081 19131,11660C19253,11857 19378,12122 19440,12317C19498,12498 19550,12743 19550,12836C19550,12942 19496,12949 19439,12850C19344,12682 19292,12599 19244,12535C19058,12287 18807,12089 18431,11890C18104,11717 17779,11582 16919,11260C16233,11003 15940,10880 15596,10708C15115,10468 14710,10204 14345,9893C14181,9754 13929,9497 13820,9360C13774,9302 13731,9248 13723,9240C13712,9228 13711,9242 13715,9330C13718,9388 13727,9597 13735,9795C13762,10431 13802,11116 13861,11915L13883,12215L13934,12263C14066,12389 14238,12497 14458,12592C14651,12676 15052,12802 15380,12884C16116,13066 16475,13188 16855,13384C17193,13559 17454,13747 17775,14049C17942,14207 18061,14335 18259,14570C18450,14798 18499,14863 18680,15131C18875,15419 18940,15522 19036,15700C19198,16001 19289,16210 19306,16317C19314,16371 19292,16410 19253,16410C19223,16410 19205,16392 18945,16111C18477,15604 18120,15367 16657,14591C15807,14140 15271,13785 14690,13286C14458,13088 14052,12664 13927,12490C13910,12465 13909,12466 13915,12550C13945,12970 14125,14602 14153,14699C14162,14732 14182,14759 14240,14814C14337,14906 14433,14969 14600,15048C15283,15371 15371,15414 15655,15575C16250,15911 16783,16332 17375,16931C17900,17463 18220,17867 18528,18390C18678,18644 18761,18874 18729,18944C18713,18978 18677,18987 18645,18966C18632,18957 18553,18873 18469,18780C18386,18686 18274,18570 18221,18523C17983,18312 17277,17815 16590,17376C16071,17044 15805,16855 15519,16614C15250,16388 14922,16055 14661,15742C14548,15607 14300,15266 14243,15167C14218,15125 14196,15091 14195,15092C14194,15094 14206,15219 14221,15370C14237,15521 14265,15854 14285,16110C14310,16438 14325,16588 14337,16620C14443,16914 14830,17392 15350,17870C15778,18264 16292,18787 16526,19066C16615,19173 16872,19514 16949,19629C17064,19800 17297,20197 17393,20387C17610,20816 17741,21247 17701,21398C17680,21473 17620,21480 17555,21413C17535,21392 17454,21290 17375,21185C17083,20797 16949,20653 15995,19690C15339,19028 14992,18637 14748,18285C14663,18163 14495,17889 14434,17776L14380,17675L14380,17720C14380,17745 14385,17842 14390,17935C14395,18029 14409,18312 14420,18565C14431,18818 14449,19176 14460,19360C14493,19917 14510,20328 14508,20465C14506,20571 14509,20605 14524,20650C14564,20768 14640,20882 14794,21054C14853,21120 14906,21183 14913,21196C14919,21208 14970,21285 15026,21367C15260,21711 15392,21987 15469,22298C15515,22482 15524,22554 15524,22710C15522,23058 15431,23300 15293,23326C15207,23342 15126,23308 14958,23183L14871,23119L14818,23136C14789,23145 14754,23155 14741,23159C14711,23168 14704,23191 14694,23311C14688,23395 14689,23402 14709,23421C14745,23454 14734,23500 14689,23500C14652,23500 14634,23469 14649,23432C14657,23414 14658,23371 14652,23300L14644,23195L14571,23273C14514,23332 14486,23354 14448,23368C14418,23378 14390,23396 14378,23413C14359,23440 14359,23442 14375,23460C14391,23477 14391,23484 14379,23525C14369,23560 14361,23570 14344,23570C14333,23570 14316,23562 14307,23552ZM14469,23233C14486,23213 14511,23171 14526,23140C14540,23110 14563,23068 14577,23048C14605,23007 14687,22960 14732,22960C14781,22960 14863,22999 14955,23066C15179,23229 15243,23260 15293,23227C15328,23204 15379,23090 15403,22982C15435,22837 15434,22567 15402,22415C15361,22224 15287,22018 15185,21813C15108,21657 14974,21433 14898,21330L14881,21307L14855,21339C14833,21364 14821,21370 14790,21370C14731,21370 14619,21324 14534,21265C14465,21217 14455,21213 14427,21221C14352,21242 14309,21223 14286,21157L14274,21120L14192,21232C14147,21294 14061,21410 14000,21490C13721,21856 13579,22105 13523,22325C13510,22379 13506,22437 13506,22580C13506,22755 13507,22769 13533,22847C13582,22993 13650,23054 13738,23030C13761,23024 13810,22999 13847,22973C13925,22920 13985,22891 14018,22890C14085,22890 14146,22949 14268,23131C14306,23189 14352,23249 14370,23263C14407,23295 14422,23290 14469,23233ZM17600,21235C17550,20956 17371,20544 17105,20100C16804,19596 16565,19276 16159,18835C15987,18648 15514,18179 15250,17933C14888,17597 14606,17274 14416,16977C14378,16918 14345,16872 14343,16874C14337,16879 14358,17304 14366,17369C14375,17440 14463,17642 14546,17784C14879,18352 15236,18782 16056,19605C16905,20457 17179,20758 17490,21182C17563,21281 17606,21332 17609,21322C17611,21313 17607,21274 17600,21235ZM11586,20580C11665,20492 12051,20115 12299,19885C12475,19721 12885,19319 13044,19152C13202,18988 13516,18622 13652,18444C13709,18370 13924,18043 14010,17900C14087,17773 14149,17641 14189,17521C14237,17377 14243,17327 14231,17126C14225,17028 14220,16927 14220,16902C14220,16877 14217,16859 14214,16863C14210,16866 14190,16908 14169,16955C14111,17086 14015,17222 13865,17383C13645,17621 13579,17676 13089,18035C12667,18344 12435,18564 12133,18942C12009,19097 11951,19182 11835,19375C11598,19771 11534,19965 11470,20492C11459,20583 11450,20676 11450,20697L11451,20735L11471,20710C11483,20696 11534,20638 11586,20580ZM18577,18701C18511,18550 18289,18195 18107,17950C17866,17625 17656,17386 17296,17022C16767,16488 16294,16101 15785,15788C15534,15633 15023,15370 14610,15183C14459,15114 14343,15049 14275,14995C14211,14945 14204,14943 14230,14986C14300,15103 14396,15243 14508,15390C14869,15865 15226,16239 15641,16576C15892,16780 16123,16940 16727,17329C17393,17758 17883,18101 18170,18341C18285,18437 18490,18642 18565,18737C18587,18765 18606,18786 18608,18785C18610,18783 18596,18745 18577,18701ZM10489,18180C10736,17934 10837,17851 11135,17642C11404,17454 11601,17330 11889,17168C12229,16977 12386,16879 12603,16723C12847,16548 13250,16177 13528,15873C13740,15640 13824,15521 13943,15284C13990,15190 14040,15059 14040,15028C14040,15023 14018,15045 13992,15077C13860,15235 13658,15396 13485,15480C13327,15557 13240,15586 12905,15676C12289,15841 12127,15895 11875,16020C11373,16267 10924,16671 10609,17160C10376,17523 10207,18017 10166,18460L10160,18525L10226,18450C10263,18409 10381,18287 10489,18180ZM19185,16213C19155,16140 18932,15714 18871,15610C18714,15347 18407,14921 18179,14650C17879,14294 17606,14030 17303,13804C17094,13647 17015,13599 16765,13475C16397,13293 16064,13182 15359,13005C14812,12868 14377,12707 14111,12544L14066,12517L14088,12548C14100,12565 14179,12652 14263,12741C14555,13052 14953,13393 15387,13703C15803,13999 16176,14220 16935,14620C17636,14990 18146,15289 18405,15483C18647,15665 18798,15807 19047,16086C19127,16176 19194,16250 19196,16250C19198,16250 19193,16233 19185,16213ZM9672,15361C9771,15287 10174,15033 10362,14926C10905,14617 10913,14613 11620,14268C12242,13964 12450,13825 12900,13413C13131,13202 13467,12828 13565,12675C13619,12590 13675,12484 13660,12496C13353,12732 13286,12769 12969,12874C12729,12954 12568,12993 12190,13065C11482,13200 11225,13273 10915,13429C10631,13573 10405,13744 10134,14022C9963,14197 9900,14273 9784,14445C9654,14636 9505,14952 9436,15181C9408,15274 9330,15608 9330,15635C9330,15638 9386,15594 9455,15536C9523,15478 9621,15400 9672,15361ZM9081,13065C9194,12928 9395,12715 9506,12616C9686,12454 10060,12172 10355,11976C10766,11702 11035,11543 11565,11260C12171,10936 12463,10728 12866,10333C13006,10197 13211,9956 13295,9830C13381,9701 13507,9461 13539,9366C13556,9314 13570,9267 13570,9261C13570,9255 13526,9294 13473,9348C13209,9613 12900,9742 11860,10019C11293,10171 11101,10238 10810,10385C10197,10696 9723,11189 9395,11855C9305,12039 9155,12395 9110,12530C9043,12732 8959,13209 8998,13165C9003,13159 9040,13115 9081,13065ZM19434,12569C19365,12299 19289,12109 19146,11850C18906,11414 18574,11080 18007,10702C17601,10431 17120,10178 16733,10032C16282,9861 15910,9764 15240,9640C14988,9593 14792,9550 14463,9469C14166,9396 13893,9283 13782,9185C13722,9133 13733,9151 13849,9290C14270,9797 14874,10257 15595,10618C15909,10775 16264,10921 16980,11189C17831,11507 18080,11609 18400,11771C18758,11953 18923,12064 19116,12255C19256,12393 19338,12497 19417,12634C19443,12680 19466,12717 19468,12715C19470,12713 19455,12647 19434,12569ZM9140,9276C9375,9090 9541,8985 9935,8772C10350,8548 10675,8387 11275,8108C11665,7926 11802,7856 12045,7714C12483,7458 12776,7235 13065,6939C13311,6688 13462,6455 13569,6166L13591,6106L13537,6159C13444,6250 13330,6328 13195,6395C12977,6503 12468,6691 11910,6871C11300,7066 10913,7235 10444,7511C9967,7791 9520,8163 9173,8570C9065,8696 8897,8946 8830,9080C8693,9354 8621,9560 8595,9755L8588,9804L8797,9593C8928,9460 9055,9343 9140,9276ZM20414,9733C20337,9598 20027,9215 19785,8955C19709,8873 19594,8749 19530,8681C19335,8470 18918,8091 18555,7794C18487,7738 18157,7498 18045,7423C17737,7217 17251,6978 16771,6799C16336,6635 16051,6559 15310,6405C14765,6292 14580,6249 14375,6185C14213,6135 13964,6042 13887,6003C13860,5990 13836,5980 13834,5983C13828,5988 13946,6157 14024,6256C14094,6344 14395,6611 14607,6774C14783,6909 15062,7097 15200,7173C15657,7426 15815,7491 17315,8050C18549,8509 19081,8767 19805,9254C19992,9380 20106,9471 20289,9644C20369,9719 20436,9780 20438,9780C20440,9780 20430,9759 20414,9733ZM8021,6999C8327,6826 8685,6669 9135,6512C9356,6435 9507,6389 10020,6245C10210,6191 10457,6116 10570,6078C11226,5855 11953,5502 12485,5147C12756,4966 12866,4881 13090,4675C13334,4452 13474,4296 13621,4085C13698,3974 13700,3971 13665,3994C13493,4107 13240,4234 13085,4285C12880,4353 12445,4457 12230,4490C11999,4525 11364,4639 11220,4671C10897,4742 10526,4856 10267,4963C10083,5040 9708,5249 9536,5372C9332,5517 8951,5834 8738,6037C8257,6494 8147,6621 7960,6936C7897,7042 7883,7070 7893,7070C7895,7070 7953,7038 8021,6999ZM20460,6653C20334,6419 20075,6090 19839,5865C19430,5475 18723,5056 17840,4680C17248,4428 16418,4167 15800,4039C15647,4007 15303,3952 15057,3920C14750,3879 14405,3806 14216,3741C14153,3719 14140,3720 14140,3751C14140,3779 14301,3943 14424,4040C14799,4337 15398,4694 15873,4904C16327,5105 16686,5227 17663,5514C18817,5854 19185,5983 19625,6203C19984,6382 20180,6500 20394,6664C20449,6706 20495,6738 20498,6736C20500,6733 20483,6696 20460,6653Z" style="fill-rule:nonzero;"/>
            </g>
        </g>
        <g id="converted-11.svg1" serif:id="converted 11.svg">
        </g>
    </g>
</svg>
