<?xml version="1.0" encoding="UTF-8" standalone="no"?>
<!DOCTYPE svg PUBLIC "-//W3C//DTD SVG 1.1//EN" "http://www.w3.org/Graphics/SVG/1.1/DTD/svg11.dtd">
<svg width="100%" height="100%" viewBox="0 0 1500 1500" version="1.1" xmlns="http://www.w3.org/2000/svg" xmlns:xlink="http://www.w3.org/1999/xlink" xml:space="preserve" xmlns:serif="http://www.serif.com/" style="fill-rule:evenodd;clip-rule:evenodd;stroke-linejoin:round;stroke-miterlimit:2;">
    <g transform="matrix(0.6995,0,0,0.6995,800.5,821.5)">
        <g id="converted-89.svg" serif:id="converted 89.svg" transform="matrix(1,0,0,1,-1000,-1000)">
            <g transform="matrix(0.1,0,0,-0.1,0,2000)">
                <path d="M10372,17541C10318,17487 10292,17448 10250,17363C10178,17217 10180,17222 10180,17205C10180,17197 10176,17182 10171,17172C10161,17154 10120,17016 10101,16937C10095,16911 10090,16846 10089,16792C10089,16719 10084,16689 10072,16669C10063,16655 10038,16617 10018,16586C9997,16555 9980,16525 9980,16520C9980,16514 9977,16510 9973,16510C9968,16510 9960,16500 9954,16487C9948,16475 9927,16434 9908,16395C9872,16324 9805,16181 9790,16145C9786,16134 9770,16099 9756,16067C9742,16035 9730,16007 9730,16005C9730,16002 9721,15978 9709,15952C9697,15926 9683,15894 9678,15880C9658,15834 9637,15785 9629,15768C9624,15758 9620,15743 9620,15735C9620,15727 9616,15720 9611,15720C9606,15720 9599,15771 9596,15833C9590,15963 9579,16043 9555,16120C9546,16150 9536,16184 9533,16195C9506,16302 9414,16438 9366,16442C9300,16446 9278,16429 9255,16356C9229,16273 9243,15979 9279,15850C9286,15825 9296,15787 9301,15765C9307,15743 9316,15711 9321,15694C9326,15677 9330,15654 9330,15642C9330,15631 9335,15618 9340,15615C9346,15612 9350,15599 9350,15587C9350,15575 9357,15552 9365,15536C9373,15521 9380,15503 9380,15496C9380,15490 9397,15451 9419,15410L9457,15335L9437,15285C9416,15230 9415,15227 9375,15125C9340,15034 9330,15009 9319,14988C9314,14978 9310,14963 9310,14955C9310,14947 9306,14932 9301,14922C9286,14895 9240,14766 9240,14752C9240,14745 9236,14732 9231,14722C9226,14713 9210,14665 9195,14615C9151,14467 9144,14440 9101,14263C9096,14242 9085,14200 9076,14169C9067,14138 9060,14102 9060,14087C9060,14073 9056,14058 9050,14055C9045,14052 9040,14035 9040,14018C9040,14000 9036,13973 9030,13956C9025,13939 9013,13888 9003,13843C8993,13798 8984,13763 8982,13764C8981,13766 8975,13810 8970,13861C8951,14042 8927,14177 8887,14320C8844,14476 8770,14598 8698,14634C8640,14663 8569,14653 8519,14610C8487,14582 8458,14499 8464,14450C8477,14332 8532,14137 8561,14105C8566,14100 8570,14090 8570,14084C8570,14073 8633,13960 8653,13935C8657,13930 8695,13873 8736,13810C8777,13747 8832,13674 8858,13648C8939,13567 8954,13542 8941,13514C8935,13500 8930,13471 8930,13450C8930,13429 8926,13401 8921,13388C8916,13375 8907,13331 8900,13290C8893,13249 8883,13193 8878,13165C8870,13118 8863,13078 8841,12943C8818,12806 8812,12771 8806,12754C8803,12743 8796,12706 8790,12670C8761,12495 8759,12481 8731,12295C8726,12257 8714,12180 8704,12125C8695,12070 8685,11996 8681,11960C8677,11912 8671,11895 8660,11895C8651,11895 8644,11906 8642,11925C8641,11942 8635,11973 8630,11995C8598,12136 8587,12177 8579,12192C8574,12202 8570,12220 8570,12233C8570,12246 8566,12260 8562,12265C8558,12271 8548,12293 8541,12315C8518,12382 8445,12485 8397,12519C8360,12544 8341,12550 8297,12550C8238,12550 8218,12535 8186,12471C8168,12434 8163,12274 8179,12242C8184,12233 8193,12207 8200,12185C8221,12119 8347,11872 8396,11801C8453,11721 8530,11638 8587,11599L8630,11569L8624,11492C8621,11450 8614,11381 8608,11340C8578,11109 8566,10398 8586,10015C8592,9916 8593,9826 8589,9815L8582,9795L8574,9815C8562,9845 8419,10059 8340,10165C8235,10307 8172,10366 8098,10395C8054,10411 8051,10411 8006,10391C7968,10375 7956,10363 7940,10325C7915,10267 7915,10241 7939,10165C7961,10092 7981,10054 8040,9975C8099,9894 8299,9700 8385,9638C8465,9581 8564,9530 8597,9530C8629,9530 8633,9516 8643,9400C8647,9342 8655,9259 8660,9215C8665,9171 8673,9092 8678,9040C8684,8988 8690,8938 8694,8930C8697,8922 8704,8872 8711,8820C8732,8643 8747,8530 8769,8365C8774,8332 8785,8265 8794,8215C8826,8044 8831,8015 8840,7960C8845,7930 8853,7881 8858,7852C8863,7822 8863,7797 8858,7794C8847,7787 8796,7825 8740,7882C8716,7906 8651,7995 8594,8081C8447,8304 8347,8390 8235,8390C8191,8390 8177,8385 8152,8362C8056,8272 8140,8007 8326,7816C8399,7741 8561,7649 8655,7628C8677,7623 8713,7615 8735,7610C8757,7605 8798,7597 8825,7591C8912,7575 8930,7564 8930,7531C8930,7515 8934,7499 8939,7496C8944,7493 8950,7473 8953,7453C8956,7432 8963,7399 8969,7380C9008,7251 9030,7173 9036,7140C9039,7126 9045,7106 9049,7095C9070,7043 9110,6908 9110,6891C9110,6880 9115,6868 9120,6865C9126,6862 9130,6848 9130,6834C9130,6821 9134,6802 9139,6792C9144,6783 9156,6748 9165,6715C9174,6682 9185,6647 9191,6638C9196,6628 9200,6609 9200,6596C9200,6582 9205,6568 9210,6565C9216,6562 9220,6546 9220,6530C9220,6514 9225,6498 9230,6495C9236,6492 9240,6476 9240,6460C9240,6444 9245,6428 9250,6425C9256,6422 9260,6409 9260,6397C9260,6385 9267,6362 9275,6346C9283,6331 9290,6309 9290,6299C9290,6288 9294,6272 9299,6262C9304,6253 9314,6225 9320,6200C9327,6175 9336,6146 9340,6135C9359,6084 9372,6043 9377,6025C9379,6014 9385,5996 9390,5985C9408,5940 9423,5880 9417,5874C9414,5871 9363,5910 9303,5961C9244,6012 9161,6078 9120,6109C9079,6140 9043,6167 9040,6170C9037,6173 9000,6197 8956,6222C8834,6294 8728,6298 8683,6231C8657,6193 8655,6163 8672,6111C8712,5984 8768,5912 8884,5832C8985,5762 9039,5738 9180,5701C9205,5694 9239,5685 9255,5680C9328,5659 9418,5640 9459,5638C9502,5635 9504,5633 9520,5590C9529,5565 9542,5532 9549,5515C9555,5499 9565,5472 9571,5455C9577,5439 9586,5416 9590,5405C9594,5394 9603,5369 9610,5350C9617,5331 9629,5301 9636,5283C9644,5266 9650,5249 9650,5246C9650,5243 9658,5221 9669,5197C9679,5174 9693,5139 9700,5120C9707,5101 9723,5061 9736,5032C9749,5003 9760,4977 9760,4975C9760,4972 9770,4948 9781,4922C9793,4896 9809,4859 9817,4840C9826,4821 9846,4776 9862,4740C9879,4704 9903,4653 9915,4625C9928,4598 9952,4546 9969,4510C9998,4450 10007,4420 9995,4420C9993,4420 9969,4433 9942,4449C9871,4491 9781,4520 9722,4520C9677,4520 9667,4516 9635,4485C9583,4432 9589,4374 9659,4258C9711,4172 9753,4146 10164,3938C10195,3922 10208,3920 10221,3929C10236,3938 10241,3935 10253,3912C10261,3897 10284,3856 10305,3820C10325,3784 10351,3739 10362,3720C10373,3701 10395,3667 10410,3645C10432,3612 10470,3554 10550,3430C10575,3390 10722,3172 10792,3068C10813,3037 10830,3009 10830,3006C10830,3003 10845,2977 10863,2948C10880,2919 10902,2882 10911,2865C10928,2833 10964,2820 10973,2843C10979,2858 10864,3096 10840,3120C10837,3123 10824,3145 10811,3170C10798,3195 10781,3222 10774,3231C10766,3239 10760,3251 10760,3257C10760,3263 10756,3270 10751,3272C10743,3275 10705,3329 10666,3394C10656,3411 10645,3427 10641,3430C10637,3433 10578,3523 10509,3630C10398,3804 10366,3860 10327,3950C10321,3964 10310,3983 10302,3992C10284,4013 10291,4163 10314,4265C10374,4525 10389,4646 10384,4800C10382,4858 10376,4914 10371,4925C10345,4986 10333,5003 10307,5016C10249,5047 10188,5008 10145,4913C10106,4829 10098,4781 10091,4600L10085,4435L10061,4485C10016,4580 9972,4675 9950,4725C9938,4753 9915,4802 9900,4835C9855,4933 9806,5043 9790,5085C9786,5096 9770,5137 9755,5175C9720,5266 9710,5291 9699,5312C9694,5322 9690,5336 9690,5343C9690,5350 9680,5378 9667,5406C9654,5433 9638,5475 9630,5500C9623,5525 9613,5549 9608,5554C9604,5560 9600,5574 9600,5586C9600,5599 9596,5612 9590,5615C9578,5623 9577,5667 9589,5674C9593,5677 9600,5708 9604,5742C9624,5929 9644,6035 9661,6046C9666,6049 9670,6060 9670,6071C9670,6081 9674,6098 9679,6108C9825,6395 9870,6516 9870,6615C9870,6697 9850,6739 9799,6764C9732,6797 9653,6771 9578,6692C9470,6577 9431,6487 9403,6285C9397,6240 9380,6213 9380,6248C9380,6260 9374,6284 9366,6302C9358,6320 9346,6355 9340,6380C9333,6405 9324,6436 9320,6450C9316,6464 9307,6495 9300,6520C9289,6559 9264,6638 9230,6746C9224,6763 9220,6786 9220,6798C9220,6809 9216,6822 9210,6825C9205,6828 9200,6844 9200,6859C9200,6874 9197,6890 9194,6893C9183,6904 9151,7003 9150,7027C9150,7039 9146,7052 9140,7055C9135,7058 9130,7072 9130,7086C9130,7099 9126,7118 9121,7128C9116,7137 9104,7172 9095,7205C9086,7238 9075,7276 9070,7290C9061,7318 9043,7384 9028,7445C9023,7467 9014,7499 9009,7516C8997,7557 8998,7596 9012,7623C9031,7661 9034,7665 9081,7736C9106,7774 9129,7812 9133,7820C9137,7828 9153,7851 9168,7871C9230,7955 9399,8198 9417,8230C9472,8331 9484,8440 9447,8505C9384,8616 9253,8619 9179,8511C9166,8492 9151,8471 9145,8465C9126,8444 9092,8380 9058,8300C9044,8268 9037,8244 9010,8143C8989,8062 8967,7984 8960,7965C8955,7954 8949,7936 8946,7926C8940,7907 8939,7907 8925,7926C8917,7936 8910,7962 8910,7982C8910,8002 8905,8031 8900,8046C8890,8072 8877,8144 8859,8270C8854,8306 8845,8364 8840,8400C8835,8436 8827,8499 8822,8540C8817,8581 8810,8626 8806,8640C8799,8668 8783,8791 8769,8920C8764,8967 8755,9043 8750,9090C8745,9137 8736,9218 8731,9270C8725,9322 8717,9399 8712,9440C8703,9522 8706,9550 8724,9550C8747,9550 8856,9674 8938,9793C8983,9858 9020,9913 9020,9916C9020,9919 9033,9940 9049,9963C9102,10040 9158,10171 9184,10278C9206,10365 9204,10400 9176,10463C9145,10533 9108,10560 9041,10560C8977,10560 8930,10535 8868,10469C8822,10419 8750,10292 8750,10260C8750,10251 8746,10240 8742,10234C8737,10229 8725,10198 8715,10165C8705,10132 8694,10101 8689,10096C8684,10090 8680,10073 8680,10057C8680,10042 8676,10031 8671,10034C8666,10037 8660,10171 8656,10332C8648,10722 8668,11257 8699,11465C8705,11504 8709,11543 8710,11552C8710,11561 8719,11572 8731,11575C8742,11579 8777,11605 8808,11634C8839,11663 8883,11702 8905,11721C8927,11740 8963,11772 8985,11792C9007,11813 9028,11830 9032,11830C9037,11830 9172,11984 9224,12050C9296,12142 9322,12188 9350,12271C9375,12349 9375,12396 9350,12438C9309,12505 9209,12505 9136,12438C9125,12428 9113,12420 9109,12420C9102,12420 9000,12295 9000,12287C9000,12285 8971,12240 8936,12187C8900,12134 8865,12076 8857,12058C8821,11978 8802,11932 8784,11888C8774,11861 8761,11840 8756,11840C8744,11840 8762,12013 8795,12205C8804,12260 8816,12332 8821,12365C8835,12464 8849,12551 8859,12615C8865,12648 8874,12706 8879,12743C8885,12780 8892,12816 8896,12821C8899,12827 8907,12860 8912,12893C8928,13004 8939,13074 8949,13135C8955,13168 8963,13223 8968,13257C8973,13290 8981,13323 8984,13329C8988,13334 8995,13370 9001,13407C9022,13547 9025,13563 9040,13570C9048,13574 9100,13599 9155,13625C9210,13652 9259,13677 9265,13682C9304,13713 9371,13760 9377,13760C9383,13760 9545,13904 9590,13950C9641,14002 9754,14131 9772,14157C9801,14200 9820,14249 9820,14282C9820,14330 9784,14388 9740,14410C9674,14444 9622,14436 9492,14372C9396,14325 9306,14241 9217,14116C9137,14003 9122,13985 9113,13994C9109,13997 9112,14006 9118,14012C9125,14019 9130,14037 9130,14054C9130,14070 9134,14097 9140,14114C9157,14169 9193,14314 9198,14348C9200,14366 9206,14383 9211,14386C9216,14389 9220,14402 9220,14415C9220,14428 9224,14449 9229,14462C9234,14475 9242,14501 9247,14520C9275,14617 9313,14737 9321,14752C9326,14762 9330,14779 9330,14789C9330,14800 9335,14812 9340,14815C9346,14818 9350,14831 9350,14844C9350,14856 9354,14870 9358,14876C9363,14881 9375,14908 9384,14935C9394,14963 9405,14994 9410,15005C9414,15016 9428,15052 9440,15085C9453,15118 9469,15161 9477,15180C9485,15199 9496,15224 9500,15235C9505,15246 9514,15273 9521,15295C9540,15354 9557,15370 9601,15370C9625,15370 9664,15383 9707,15405C9744,15424 9781,15440 9788,15440C9794,15440 9800,15445 9800,15450C9800,15456 9806,15460 9814,15460C9853,15460 10269,15733 10350,15812C10380,15841 10414,15876 10425,15890C10490,15970 10516,16102 10475,16135C10461,16146 10441,16149 10405,16146C10329,16139 10280,16129 10274,16119C10271,16114 10262,16110 10254,16110C10239,16110 10126,16041 10084,16007C9887,15846 9837,15799 9721,15657C9686,15614 9653,15583 9648,15588C9644,15592 9652,15625 9666,15661C9681,15696 9696,15734 9700,15745C9705,15756 9718,15787 9729,15813C9741,15840 9764,15896 9781,15938C9798,15980 9825,16043 9841,16078C9857,16113 9870,16143 9870,16146C9870,16159 9994,16415 10039,16495C10098,16600 10142,16661 10165,16670C10178,16675 10191,16684 10195,16690C10199,16696 10213,16705 10226,16710C10239,16715 10261,16739 10276,16762C10304,16808 10322,16836 10392,16945C10468,17064 10484,17093 10522,17170C10600,17332 10622,17437 10595,17521C10573,17592 10551,17610 10489,17610C10441,17610 10437,17608 10372,17541Z" style="fill-rule:nonzero;"/>
            </g>
        </g>
        <g id="converted-89.svg1" serif:id="converted 89.svg">
        </g>
    </g>
</svg>
